<svg xmlns="http://www.w3.org/2000/svg" viewBox="0 0 51.46 49.57"><defs><style>.cls-1{fill:#0769ad;}</style></defs><title>Asset 1</title><g id="Layer_2" data-name="Layer 2"><g id="Layer_1-2" data-name="Layer 1"><path class="cls-1" d="M3.27,11.64c-4.56,6.55-4,15.07-.51,22,.08.17.17.33.26.49a2.39,2.39,0,0,0,.16.32l.1.17c.06.12.12.22.18.33l.33.57.2.31c.12.2.25.4.38.6s.11.17.17.26c.17.27.35.54.55.8l0,0,.09.13.51.68.19.24.47.58.18.22c.21.25.43.5.66.74v0s0,0,0,0l.66.7.22.21c.17.18.34.35.53.52l.22.21c.24.23.47.45.72.66h0l.12.11.66.56.27.22.56.43.3.22c.2.16.41.3.61.45l.23.16.06,0,.6.4.26.17.94.58.26.15c.24.13.47.27.71.39s.26.14.39.21l.51.26.11,0,.21.1.81.38.16.07c.31.14.62.27.94.39l.22.09.89.33.1,0,1,.32.24.07a9.51,9.51,0,0,0,1,.28c22,4,28.44-13.24,28.44-13.24-5.38,7-14.93,8.85-24,6.8-.33-.08-.66-.19-1-.29L25,42.16l-1-.32-.14-.05L23,41.48l-.24-.1c-.32-.12-.62-.25-.93-.38l-.18-.08-.78-.37-.23-.11c-.2-.09-.4-.2-.6-.3l-.4-.21-.73-.4a1.16,1.16,0,0,0-.24-.14l-.94-.58-.26-.17-.67-.45L16.62,38,16,37.58l-.28-.21-.57-.44-.25-.21c-.25-.2-.48-.39-.71-.6l-.09-.06-.74-.69-.21-.2-.54-.52-.21-.22c-.23-.22-.45-.46-.66-.7l0,0L11,32.94l-.18-.21-.48-.59-.18-.23c-.19-.24-.37-.49-.55-.74-5-6.84-6.83-16.29-2.82-24"/><path class="cls-1" d="M17.42,6.13c-3.31,4.74-3.12,11.08-.55,16.1a20,20,0,0,0,1.45,2.43A11.63,11.63,0,0,0,20,26.78c.23.26.48.51.74.77l.19.19.76.7,0,0h0a10.32,10.32,0,0,0,.88.73l.2.16.92.68h0c.13.1.28.19.42.28l.2.13c.22.15.45.29.68.42l.1.05c.19.12.4.24.6.34l.22.12.42.22.07,0,.87.41.2.08.72.29.31.11.67.23.3.1a6.23,6.23,0,0,0,1,.28c17,2.82,20.94-10.28,20.94-10.28-3.54,5.1-10.4,7.53-17.71,5.63-.33-.08-.65-.18-1-.28l-.28-.09-.68-.23-.31-.12c-.24-.09-.48-.18-.72-.29l-.19-.08L29.71,27l-.45-.23L29,26.63c-.2-.1-.38-.21-.57-.32l-.13-.07c-.23-.14-.47-.28-.68-.42l-.21-.14L27,25.39l-.91-.67-.21-.17a20.42,20.42,0,0,1-7-9.9A15.33,15.33,0,0,1,20.1,2.33"/><path class="cls-1" d="M29.31,2a9.9,9.9,0,0,0-.79,9.57,13.46,13.46,0,0,0,7.73,7.22c.14.06.28.1.42.15l.19.06c.2.06.4.14.6.18,9.4,1.81,11.94-4.83,12.63-5.8-2.24,3.21-6,4-10.59,2.87a11,11,0,0,1-1.11-.35,13.81,13.81,0,0,1-1.33-.55,13.34,13.34,0,0,1-2.31-1.41c-4.12-3.13-6.68-9.09-4-13.94"/></g></g></svg>