<svg width="1505" height="1550" viewBox="0 0 1505 1550" fill="none" xmlns="http://www.w3.org/2000/svg">
<g clip-path="url(#clip0_1315_21)">
<path d="M591.5 1545.12L15 1212.62C6.5 1207.12 0 1204.12 0 1193.12V188.625C0 180.467 5 175.125 9.5 172.625L302 4.125C311.5 -1.375 319.5 -1.375 328.5 4.125L619 171.125C630.5 177.625 631 186.125 631 193.625V815.625L873.5 676.125V358.125C873.5 347.125 878.5 340.625 890.5 333.625L1180 167.125C1187 163.125 1192.5 163.125 1199.5 167.125L1494.5 337.125C1504 342.625 1505 349.125 1505 358.625V689.125C1505 699.625 1502.5 705.125 1492 711.625L1213.5 871.625V1188.62C1213.5 1201.12 1210.5 1206.12 1199.5 1212.62L621 1545.12C610 1551.12 602.5 1551.12 591.5 1545.12ZM582.5 1483.62V1204.62L306.5 1048.62C297.5 1043.12 291 1039.12 291 1025.62V374.125L48 234.625V1176.12L582.5 1483.62ZM1165.5 1176.12V899.125L631 1204.62V1483.62L1165.5 1176.12ZM1139.97 857.958L898 717.625L365 1025.12L606 1162.12L1139.97 857.958ZM582.5 843.125V234.125L340 374.125V983.125L582.5 843.125ZM1165.5 815.125V539.125L922.5 399.125V676.125L1165.5 815.125ZM1456.5 676.125V399.125L1213.5 539.125V815.125L1456.5 676.125ZM1189.5 496.625L1431.5 357.125L1189.5 217.625L947 357.125L1189.5 496.625ZM557.635 192.129L315 52.625L73 192.125L315 332.125L557.635 192.129Z" fill="#FF2D20"/>
</g>
<defs>
<clipPath id="clip0_1315_21">
<rect width="1505" height="1550" fill="white"/>
</clipPath>
</defs>
</svg>
