<svg xmlns="http://www.w3.org/2000/svg" xmlns:xlink="http://www.w3.org/1999/xlink" viewBox="0 0 552.96 290.88"><defs><style>.cls-1{fill:url(#radial-gradient);}.cls-2{fill:#6181b6;}.cls-3{fill:#fff;}.cls-4{fill:#000004;}</style><radialGradient id="radial-gradient" cx="139.48" cy="60.44" r="363.06" gradientTransform="translate(26.52 -9.31)" gradientUnits="userSpaceOnUse"><stop offset="0" stop-color="#fff"/><stop offset="0.5" stop-color="#4c6b97"/><stop offset="1" stop-color="#231f20"/></radialGradient></defs><title>Asset 1</title><g id="Layer_2" data-name="Layer 2"><g id="Layer_3" data-name="Layer 3"><ellipse class="cls-1" cx="276.48" cy="145.44" rx="276.48" ry="145.44"/><ellipse class="cls-2" cx="276.48" cy="145.44" rx="265.68" ry="134.64"/><path class="cls-3" d="M330.3,189l13.18-67.83c3-15.31.5-26.73-7.35-33.94-7.6-7-20.51-10.38-39.46-10.38H273.84l6.54-33.6a4.32,4.32,0,0,0-4.24-5.15h-31.5a4.34,4.34,0,0,0-4.25,3.5l-14,72A40.48,40.48,0,0,0,217,92.75c-9.24-10.58-23.85-15.94-43.44-15.94h-61a4.32,4.32,0,0,0-4.24,3.5L79.91,226.06a4.32,4.32,0,0,0,4.24,5.14H115.9a4.31,4.31,0,0,0,4.24-3.49L127,192.45h23.64c12.4,0,22.82-1.34,31-4a60.61,60.61,0,0,0,22.72-13.61,70,70,0,0,0,13.43-16.67l-5.66,29.13a4.31,4.31,0,0,0,4.24,5.14h31.5a4.32,4.32,0,0,0,4.24-3.49l15.55-80h21.61c9.21,0,11.91,1.84,12.64,2.63s2,3.25.5,11.24l-12.53,64.49a4.31,4.31,0,0,0,4.24,5.14h32A4.32,4.32,0,0,0,330.3,189Zm-146-56c-2,10.16-5.71,17.42-11.08,21.56s-14.2,6.33-26,6.33H133.14l10.18-52.36h18.19c13.36,0,18.75,2.86,20.91,5.26C185.42,117,186.05,123.67,184.26,132.92Z"/><path class="cls-3" d="M465,92.75c-9.23-10.58-23.85-15.94-43.44-15.94H360.51a4.32,4.32,0,0,0-4.24,3.5L327.94,226.06a4.32,4.32,0,0,0,4.24,5.14h31.75a4.31,4.31,0,0,0,4.24-3.49L375,192.45h23.64c12.4,0,22.82-1.34,30.95-4a60.54,60.54,0,0,0,22.72-13.61,67.71,67.71,0,0,0,21.26-38.06C477.2,118.22,474.31,103.41,465,92.75Zm-32.92,40.17c-2,10.16-5.71,17.42-11.09,21.56s-14.19,6.33-26,6.33H381l10.17-52.36h18.19c13.37,0,18.75,2.86,20.92,5.26C433.23,117,433.87,123.67,432.08,132.92Z"/><path class="cls-4" d="M161.51,104.13q18.09,0,24.12,6.68t2.87,22.93q-3.28,16.92-12.69,24.16t-28.6,7.23H127.9l11.85-61ZM84.15,226.88H115.9l7.53-38.75h27.2q18,0,29.62-3.78a56.14,56.14,0,0,0,21.13-12.68A63.35,63.35,0,0,0,221.32,136q5-25.92-7.6-40.38T173.53,81.13h-61Z"/><path class="cls-4" d="M244.64,42.38h31.5L268.6,81.13h28.07q26.47,0,36.54,9.24t6,29.94l-13.18,67.82h-32l12.53-64.49q2.13-11-1.58-15t-15.8-4H264l-16.22,83.5h-31.5Z"/><path class="cls-4" d="M409.32,104.13q18.1,0,24.13,6.68t2.87,22.93q-3.3,16.92-12.69,24.16T395,165.13H375.72l11.85-61ZM332,226.88h31.75l7.53-38.75h27.19q18,0,29.62-3.78a56.17,56.17,0,0,0,21.14-12.68A63.26,63.26,0,0,0,469.13,136q5-25.92-7.59-40.38T421.35,81.13H360.29Z"/></g></g></svg>