<svg width="136" height="151" viewBox="0 0 136 151" fill="none" xmlns="http://www.w3.org/2000/svg">
<g clip-path="url(#clip0_1315_21)">
<mask id="mask0_1315_21" style="mask-type:luminance" maskUnits="userSpaceOnUse" x="71" y="0" width="65" height="151">
<path d="M135.76 36.86L71.29 0.0200195V151L97.05 136.04V93.57L116.5 104.82L116.39 75.77L97.05 64.72V47.85L135.85 70.27L135.76 36.86Z" fill="white"/>
</mask>
<g mask="url(#mask0_1315_21)">
<path d="M153.39 -0.530029H-4.91992V151.19H153.39V-0.530029Z" fill="url(#paint0_linear_1315_21)"/>
</g>
<mask id="mask1_1315_21" style="mask-type:luminance" maskUnits="userSpaceOnUse" x="0" y="0" width="66" height="151">
<path d="M1.02994 36.86L65.4999 0.0200195V151L39.7399 136.04V47.85L0.939941 70.27L1.02994 36.86Z" fill="white"/>
</mask>
<g mask="url(#mask1_1315_21)">
<path d="M152.31 -0.530029H-6V151.19H152.31V-0.530029Z" fill="url(#paint1_linear_1315_21)"/>
</g>
</g>
<defs>
<linearGradient id="paint0_linear_1315_21" x1="-4.91992" y1="75.33" x2="153.39" y2="75.33" gradientUnits="userSpaceOnUse">
<stop stop-color="#FF6F00"/>
<stop offset="1" stop-color="#FFA800"/>
</linearGradient>
<linearGradient id="paint1_linear_1315_21" x1="-6" y1="75.33" x2="152.32" y2="75.33" gradientUnits="userSpaceOnUse">
<stop stop-color="#FF6F00"/>
<stop offset="1" stop-color="#FFA800"/>
</linearGradient>
<clipPath id="clip0_1315_21">
<rect width="136" height="151" fill="white"/>
</clipPath>
</defs>
</svg>
